# xmcd
#
# Track frame offsets: 
#        182
#        28462
#        46627
#        75355
#        96640
#        117127
#        142527
#        158785
#        175172
#        205852
#        230692
#        250995
#
# Disc length: 3526 seconds
#
# Revision: 0
# Processed by: cddbd v1.5.2PL0 Copyright (c) Steve Scherf et al.
# Submitted via: ExactAudioCopy v0.99pb1
#
DISCID=950dc40c
DTITLE=John 'Broadway' Tucker - Mostly You
DYEAR=1994
DGENRE=Blues
TTITLE0=Mostly You
TTITLE1=One Way Love Affair
TTITLE2=Good Woman
TTITLE3=Drivin' Wheel
TTITLE4=Move Away
TTITLE5=Kimball Street
TTITLE6=I've Been Loving You Too Long
TTITLE7=Walkin' To My Baby
TTITLE8=Can't Afford Two
TTITLE9=Treat A Dog
TTITLE10=Come Back
TTITLE11=Steal Away
EXTD=
EXTT0=
EXTT1=
EXTT2=
EXTT3=
EXTT4=
EXTT5=
EXTT6=
EXTT7=
EXTT8=
EXTT9=
EXTT10=
EXTT11=
PLAYORDER=
